<svg width="800" height="800" viewBox="0 0 73 73" xmlns="http://www.w3.org/2000/svg">
    <g transform="translate(2 2)" fill-rule="nonzero" fill="none">
        <rect stroke="#1C78C0" stroke-width="2" fill="#FFF" x="-1" y="-1" width="71" height="71" rx="14" />
        <path fill="#FFF" d="m34.25 7 23.249 13.151v26.307L34.25 59.609 11 46.458V20.151z" />
        <path
            d="m53.348 45.551-18.33 10.37v-8.075l11.421-6.284 6.909 3.989Zm1.255-1.135V22.734L47.9 26.609v13.938l6.704 3.869ZM15.08 45.55l18.33 10.37v-8.075l-11.427-6.284-6.903 3.989Zm-1.255-1.135V22.734l6.704 3.875v13.938l-6.704 3.869Zm.787-23.088 18.797-10.633v7.804l-12.045 6.626-.096.054-6.656-3.85Zm39.205 0L35.02 10.695v7.804l12.045 6.62.096.054 6.656-3.845Z"
            fill="#8ED6FB" />
        <path
            d="m33.408 46.008-11.27-6.2V27.534l11.27 6.506v11.968Zm1.61 0 11.27-6.194v-12.28l-11.27 6.506v11.968ZM22.902 26.116l11.313-6.218 11.312 6.218-11.312 6.53-11.313-6.53Z"
            fill="#1C78C0" />
    </g>
</svg>